<?xml version="1.0" encoding="UTF-8"?>
<svg width="450" height="450" role="img" version="1.1" viewBox="0 0 450 450" xmlns="http://www.w3.org/2000/svg" xmlns:cc="http://creativecommons.org/ns#" xmlns:dc="http://purl.org/dc/elements/1.1/" xmlns:rdf="http://www.w3.org/1999/02/22-rdf-syntax-ns#">
 <metadata>
  <rdf:RDF>
   <cc:Work rdf:about="">
    <dc:format>image/svg+xml</dc:format>
    <dc:type rdf:resource="http://purl.org/dc/dcmitype/StillImage"/>
    <dc:title>GitHub</dc:title>
   </cc:Work>
  </rdf:RDF>
 </metadata>
 <title>GitHub</title>
 <circle cx="225" cy="225" r="225" stroke-width="64.435"/>
 <path d="m281.65 442.75c-187.77-295.17-93.883-147.58 0 0zm0 0c-0.45176-1.3273-0.69141-2.7588-0.69141-4.3066v-63.359c0-19.419-5.0781-33.635-15.23-42.641 11.131-1.2012 21.139-3.0095 30.027-5.4141 8.8841-2.4045 18.068-6.3064 27.541-11.713 9.4711-5.4023 17.382-12.06 23.734-19.971 6.3455-7.912 11.52-18.416 15.521-31.533 3.9967-13.115 6.0059-28.177 6.0059-45.193 0-24.224-7.7197-44.848-23.148-61.867 7.23-18.216 6.4458-38.636-2.3398-61.26-5.4713-1.8039-13.387-0.7015-23.738 3.3008-10.345 4.0044-19.334 8.4099-26.947 13.217l-11.133 7.2051c-18.168-5.2035-36.92-7.8066-56.254-7.8066-19.334 0-38.083 2.6032-56.25 7.8066-3.1256-2.1984-7.2734-4.9088-12.451-8.1074-5.1778-3.1997-13.33-7.0594-24.463-11.564-11.131-4.503-19.531-5.8567-25.195-4.0527-8.5948 22.623-9.2768 43.044-2.0488 61.26-15.43 17.019-23.146 37.636-23.146 61.865 0 17.017 2.001 32.031 6.0039 45.047 4.0008 13.01 9.1298 23.524 15.379 31.533 6.248 8.0046 14.11 14.716 23.586 20.119 9.4711 5.4107 18.651 9.3123 27.535 11.717 8.8893 2.4014 18.898 4.2071 30.029 5.4062-7.8098 7.2062-12.596 17.516-14.354 30.936-4.1034 2.0006-8.4994 3.5045-13.184 4.5059-4.6894 0.9961-10.255 1.498-16.699 1.498s-12.842-2.1499-19.188-6.4551c-6.3506-4.3052-11.765-10.561-16.26-18.771-3.7115-6.4036-8.4464-11.608-14.207-15.611-5.7637-4.0065-10.596-6.4045-14.502-7.207l-5.8574-0.89648c-4.1034 0-6.9313 0.43825-8.4961 1.3418-1.5648 0.90354-2.0518 2.0548-1.4648 3.459 0.58591 1.4032 1.4629 2.8051 2.6348 4.2051 1.1729 1.4 2.4418 2.6052 3.8086 3.6055l2.0508 1.5058c4.2964 2.0017 8.5442 5.8028 12.744 11.41 4.1999 5.6021 7.2739 10.714 9.2266 15.314l2.9297 6.9102c2.5396 7.6028 6.8366 13.762 12.889 18.467 6.0551 4.7049 12.596 7.7071 19.629 9.002 7.0299 1.3064 13.819 2.0099 20.359 2.1035 6.5436 0.0968 11.965-0.24597 16.262-1.0527l6.7383-1.1934c0 7.6017 0.0459 16.51 0.14648 26.723 0.0975 10.212 0.14844 15.616 0.14844 16.217 0 1.5698-0.25558 3.0183-0.73828 4.3613 18.423 4.7711 37.377 7.1856 56.408 7.1856 19.114-6.7e-4 38.15-2.437 56.648-7.25zm-113.06 0.0645c-112.39-295.21-56.197-147.6 0 0z" fill="#fff" stroke-width="1.0389"/>
</svg>
