<?xml version="1.0" encoding="UTF-8"?>
<svg width="500" height="500" version="1.1" viewBox="0 0 132.29 132.29" xmlns="http://www.w3.org/2000/svg" xmlns:cc="http://creativecommons.org/ns#" xmlns:dc="http://purl.org/dc/elements/1.1/" xmlns:rdf="http://www.w3.org/1999/02/22-rdf-syntax-ns#">
 <metadata>
  <rdf:RDF>
   <cc:Work rdf:about="">
    <dc:format>image/svg+xml</dc:format>
    <dc:type rdf:resource="http://purl.org/dc/dcmitype/StillImage"/>
    <dc:title/>
   </cc:Work>
  </rdf:RDF>
 </metadata>
 <path transform="scale(.26458)" d="m249.53 0a250 250 0 0 0-249.53 250 250 250 0 0 0 250 250 250 250 0 0 0 250-250 250 250 0 0 0-250-250 250 250 0 0 0-0.4707 0h-0.00391zm0.38867 30h0.00391a220 220 0 0 1 0.08594 0 220 220 0 0 1 220 220 220 220 0 0 1-81.166 170.66l-28.365-28.365c-19.103 14.832-41.291 25.893-65.465 32.078v40.975a220 220 0 0 1-45.004 4.6523 220 220 0 0 1-220-220 220 220 0 0 1 81.164-170.66l28.367 28.367c19.103-14.832 41.291-25.894 65.469-32.078v-40.98a220 220 0 0 1 44.91-4.6523z"/>
 <path d="m66.144 17.197c-1.6514 0-3.2838 0.08346-4.8938 0.24427v43.809l4.8948 4.8948h4.8948c-3e-6 -12.952 0-25.904 0-38.856 19.359 2.3968 34.263 18.829 34.263 38.856 0 10.842-4.3703 20.63-11.45 27.709l6.8809 6.8809c8.8654-8.8654 14.359-21.103 14.359-34.59 0-26.975-21.973-48.947-48.949-48.947zm9.25e-4 48.948h-17.132v9.7893h12.237v29.066c-19.36-2.3962-34.263-18.831-34.263-38.857 0-10.842 4.3699-20.629 11.449-27.708l-6.8809-6.8809c-8.8648 8.8648-14.358 21.101-14.358 34.589-2e-6 26.975 21.972 48.949 48.947 48.949 1.6521 0 3.2851-0.0833 4.8957-0.24426v-43.809z" color="#000000" color-rendering="auto" dominant-baseline="auto" image-rendering="auto" shape-rendering="auto" solid-color="#000000" stop-color="#000000" stroke-width=".925" style="font-feature-settings:normal;font-variant-alternates:normal;font-variant-caps:normal;font-variant-east-asian:normal;font-variant-ligatures:normal;font-variant-numeric:normal;font-variant-position:normal;font-variation-settings:normal;inline-size:0;isolation:auto;mix-blend-mode:normal;shape-margin:0;shape-padding:0;text-decoration-color:#000000;text-decoration-line:none;text-decoration-style:solid;text-indent:0;text-orientation:mixed;text-transform:none;white-space:normal"/>
</svg>
