<?xml version="1.0" encoding="UTF-8"?>
<svg width="500" height="500" version="1.1" viewBox="0 0 132.29 132.29" xmlns="http://www.w3.org/2000/svg" xmlns:cc="http://creativecommons.org/ns#" xmlns:dc="http://purl.org/dc/elements/1.1/" xmlns:rdf="http://www.w3.org/1999/02/22-rdf-syntax-ns#">
 <metadata>
  <rdf:RDF>
   <cc:Work rdf:about="">
    <dc:format>image/svg+xml</dc:format>
    <dc:type rdf:resource="http://purl.org/dc/dcmitype/StillImage"/>
    <dc:title/>
   </cc:Work>
  </rdf:RDF>
 </metadata>
 <g display="none" fill="none" stroke="#000" stroke-linejoin="round">
  <path transform="scale(.26458)" d="m75.518 76.999c-31.235 31.609-50.518 75.055-50.518 123 1.9e-5 96.65 78.35 175 175 175v-150h-52.514" stroke-width="50"/>
  <path d="m85.853 85.461c8.2643-8.3633 13.366-19.858 13.366-32.544-1e-5 -25.572-20.73-46.302-46.302-46.302v39.687" stroke-width="13.229"/>
 </g>
 <path transform="scale(.26458)" d="m249.53 0a250 250 0 0 0-249.53 250 250 250 0 0 0 250 250 250 250 0 0 0 250-250 250 250 0 0 0-250-250 250 250 0 0 0-0.4707 0h-0.00391zm0.38867 30h0.00391a220 220 0 0 1 0.08594 0 220 220 0 0 1 220 220 220 220 0 0 1-81.166 170.66l-28.365-28.365c-19.103 14.832-41.291 25.893-65.465 32.078v40.975a220 220 0 0 1-45.004 4.6523 220 220 0 0 1-220-220 220 220 0 0 1 81.164-170.66l28.367 28.367c19.103-14.832 41.291-25.894 65.469-32.078v-40.98a220 220 0 0 1 44.91-4.6523z"/>
 <path d="m66.144 17.197c-1.6514 0-3.2838 0.08346-4.8938 0.24427v43.809l4.8948 4.8948h4.8948c-3e-6 -12.952 0-25.904 0-38.856 19.359 2.3968 34.263 18.829 34.263 38.856 0 10.842-4.3703 20.63-11.45 27.709l6.8809 6.8809c8.8654-8.8654 14.359-21.103 14.359-34.59 0-26.975-21.973-48.947-48.949-48.947zm9.25e-4 48.948h-17.132v9.7893h12.237v29.066c-19.36-2.3962-34.263-18.831-34.263-38.857 0-10.842 4.3699-20.629 11.449-27.708l-6.8809-6.8809c-8.8648 8.8648-14.358 21.101-14.358 34.589-2e-6 26.975 21.972 48.949 48.947 48.949 1.6521 0 3.2851-0.0833 4.8957-0.24426v-43.809z" color="#000000" color-rendering="auto" dominant-baseline="auto" image-rendering="auto" shape-rendering="auto" solid-color="#000000" stop-color="#000000" stroke-width=".925" style="font-feature-settings:normal;font-variant-alternates:normal;font-variant-caps:normal;font-variant-east-asian:normal;font-variant-ligatures:normal;font-variant-numeric:normal;font-variant-position:normal;font-variation-settings:normal;inline-size:0;isolation:auto;mix-blend-mode:normal;shape-margin:0;shape-padding:0;text-decoration-color:#000000;text-decoration-line:none;text-decoration-style:solid;text-indent:0;text-orientation:mixed;text-transform:none;white-space:normal"/>
 <g display="none">
  <path d="m42.334 1.0653c-8.5526 1.7452-16.362 5.5638-22.882 10.903l7.4843 7.4843c4.4928-3.4882 9.7112-6.0898 15.398-7.5442zm36.563 85.315c-4.4926 3.4881-9.7106 6.0896-15.396 7.5442v10.843c8.5522-1.7455 16.361-5.5642 22.881-10.903z" color="#000000" color-rendering="auto" display="inline" dominant-baseline="auto" fill="#141d28" image-rendering="auto" shape-rendering="auto" solid-color="#000000" stop-color="#000000" style="font-feature-settings:normal;font-variant-alternates:normal;font-variant-caps:normal;font-variant-east-asian:normal;font-variant-ligatures:normal;font-variant-numeric:normal;font-variant-position:normal;font-variation-settings:normal;inline-size:0;isolation:auto;mix-blend-mode:normal;shape-margin:0;shape-padding:0;text-decoration-color:#000000;text-decoration-line:none;text-decoration-style:solid;text-indent:0;text-orientation:mixed;text-transform:none;white-space:normal"/>
  <path d="m-118.39-1.2618c-8.0933 8.5905-12.601 19.947-12.601 31.75 1.9e-4 24.8 19.54 45.196 44.318 46.259v-38.322h-15.875" display="inline" fill="none" stroke="#3b74ba" stroke-width="10.583" style="paint-order:normal"/>
  <g fill="#3b74ba" shape-rendering="auto">
   <path d="m30.906-104.21c-17.639 10.272-27.201 30.879-27.201 43.665 1.968e-4 25.73 19 47.282 43.923 51.017 1.8581 0.16727 3.7907 0.43995 5.4601 0.52968 3.041 0.045 5.3959-2.4207 5.5175-5.1671-2.65e-4 -12.775 0.0016-28.29 0.0016-39.766-7.93e-4 -2.9216-2.3691-5.2898-5.2906-5.2906h-22.756c2.3386 9.9887 17.463 7.699 17.463 10.582v25.067c-0.07973 3.5994-1.475 2.9346-2.2014 2.7631-18.161-4.2874-31.533-20.387-31.533-39.736 0.84876-17.824 4.1406-26.319 16.618-43.665z" color="#000000" color-rendering="auto" display="inline" dominant-baseline="auto" image-rendering="auto" solid-color="#000000" stop-color="#000000" style="font-feature-settings:normal;font-variant-alternates:normal;font-variant-caps:normal;font-variant-east-asian:normal;font-variant-ligatures:normal;font-variant-numeric:normal;font-variant-position:normal;font-variation-settings:normal;inline-size:0;isolation:auto;mix-blend-mode:normal;paint-order:normal;shape-margin:0;shape-padding:0;text-decoration-color:#000000;text-decoration-line:none;text-decoration-style:solid;text-indent:0;text-orientation:mixed;text-transform:none;white-space:normal"/>
   <path d="m158.52-20.361v43.141l5.2917 5.2916 5.2906-5.1e-5 2e-5 -37.547c19.271 3.4619 33.734 20.071 33.734 40.193-1.4e-4 9.8428-3.5376 19.331-9.9338 26.758l7.214 7.8197c8.5525-9.4706 13.303-21.791 13.304-34.578-2e-4 -25.868-19.203-47.516-44.323-51.079z" color="#000000" color-rendering="auto" display="inline" dominant-baseline="auto" image-rendering="auto" solid-color="#000000" stop-color="#000000" style="font-feature-settings:normal;font-variant-alternates:normal;font-variant-caps:normal;font-variant-east-asian:normal;font-variant-ligatures:normal;font-variant-numeric:normal;font-variant-position:normal;font-variation-settings:normal;inline-size:0;isolation:auto;mix-blend-mode:normal;paint-order:normal;shape-margin:0;shape-padding:0;text-decoration-color:#000000;text-decoration-line:none;text-decoration-style:solid;text-indent:0;text-orientation:mixed;text-transform:none;white-space:normal"/>
   <path d="m127.51-9.1522c-8.5523 9.4705-13.303 21.792-13.304 34.578 2e-4 25.868 19.203 47.516 44.323 51.079h10.578v-43.141l-5.2917-5.2917-21.166 6.1e-5v10.582h15.875v26.965c-19.271-3.4619-33.734-20.07-33.734-40.193 1.4e-4 -9.8428 3.5376-19.331 9.9338-26.759z" color="#000000" color-rendering="auto" display="inline" dominant-baseline="auto" image-rendering="auto" solid-color="#000000" stop-color="#000000" style="font-feature-settings:normal;font-variant-alternates:normal;font-variant-caps:normal;font-variant-east-asian:normal;font-variant-ligatures:normal;font-variant-numeric:normal;font-variant-position:normal;font-variation-settings:normal;inline-size:0;isolation:auto;mix-blend-mode:normal;paint-order:normal;shape-margin:0;shape-padding:0;text-decoration-color:#000000;text-decoration-line:none;text-decoration-style:solid;text-indent:0;text-orientation:mixed;text-transform:none;white-space:normal"/>
   <path d="m81.015-18.295c17.64-10.272 27.201-30.879 27.201-43.665-2e-4 -25.73-19-47.282-43.923-51.017-1.8581-0.16727-3.7907-0.43995-5.4601-0.52968-3.041-0.045-5.3959 2.4207-5.5175 5.1671 2.6e-4 12.775-2e-3 28.29-2e-3 39.766 7.9e-4 2.9216 2.369 5.2898 5.2906 5.2906h5.2938c2.9e-5 -11.442-6.3e-5 -24.207-1.22e-4 -35.649 0.0797-3.5994 1.475-2.9346 2.2014-2.7631 18.161 4.2874 31.533 20.387 31.533 39.736-0.84876 17.824-4.1406 26.319-16.618 43.665z" color="#000000" color-rendering="auto" display="inline" dominant-baseline="auto" image-rendering="auto" solid-color="#000000" stop-color="#000000" style="font-feature-settings:normal;font-variant-alternates:normal;font-variant-caps:normal;font-variant-east-asian:normal;font-variant-ligatures:normal;font-variant-numeric:normal;font-variant-position:normal;font-variation-settings:normal;inline-size:0;isolation:auto;mix-blend-mode:normal;paint-order:normal;shape-margin:0;shape-padding:0;text-decoration-color:#000000;text-decoration-line:none;text-decoration-style:solid;text-indent:0;text-orientation:mixed;text-transform:none;white-space:normal"/>
  </g>
  <path d="m-77.698 94.419c-25.236 1.4041-44.979 22.277-44.979 47.552 1.9e-4 25.274 19.744 46.147 44.979 47.551v-42.259h-15.875" display="inline" fill="none" stop-color="#000000" stroke="#3b74ba" stroke-width="10.583"/>
  <path d="m-43.862 108.64c-2.6969 0-5.3474 0.20479-7.938 0.59789v44.382l7.9375 7.9375h7.9375v-36.198c16.699 3.6062 29.104 18.374 29.104 36.198 0 10.276-4.1235 19.535-10.815 26.225l11.156 11.156c9.5875-9.5876 15.534-22.816 15.534-37.382 0-29.131-23.785-52.918-52.916-52.918zm-5.16e-4 52.917h-18.521v15.875h10.583v20.321c-16.699-3.606-29.105-18.372-29.105-36.196 0-10.276 4.1235-19.536 10.816-26.227l-11.156-11.156c-9.5881 9.5881-15.535 22.817-15.535 37.383-3e-6 29.131 23.787 52.916 52.918 52.916 2.6965 0 5.3467-0.20492 7.937-0.59789v-44.381z" color="#000000" color-rendering="auto" display="inline" dominant-baseline="auto" fill="#3b74ba" image-rendering="auto" shape-rendering="auto" solid-color="#000000" stop-color="#000000" style="font-feature-settings:normal;font-variant-alternates:normal;font-variant-caps:normal;font-variant-east-asian:normal;font-variant-ligatures:normal;font-variant-numeric:normal;font-variant-position:normal;font-variation-settings:normal;inline-size:0;isolation:auto;mix-blend-mode:normal;shape-margin:0;shape-padding:0;text-decoration-color:#000000;text-decoration-line:none;text-decoration-style:solid;text-indent:0;text-orientation:mixed;text-transform:none;white-space:normal"/>
 </g>
</svg>
