<?xml version="1.0" encoding="UTF-8" standalone="no"?>
<!DOCTYPE svg PUBLIC "-//W3C//DTD SVG 20010904//EN"
              "http://www.w3.org/TR/2001/REC-SVG-20010904/DTD/svg10.dtd">

<svg xmlns="http://www.w3.org/2000/svg"
     width="1.18333in" height="1.14333in"
     viewBox="0 0 355 343">
  <path id="Selection"
        fill="black"
        d="M 210.00,177.00
           C 193.99,176.25 175.12,166.47 170.76,150.00
             169.90,146.76 170.01,144.29 170.00,141.00
             170.00,141.00 170.00,24.00 170.00,24.00
             170.00,21.44 169.88,18.44 170.70,16.00
             172.95,9.35 182.18,1.87 189.00,0.20
             189.00,0.20 208.00,0.20 208.00,0.20
             227.76,0.23 259.57,14.17 276.00,25.00
             314.04,50.09 339.36,84.73 350.37,129.00
             352.81,138.78 354.98,149.93 355.00,160.00
             355.00,160.00 355.00,188.00 355.00,188.00
             354.83,201.89 348.71,225.99 343.55,239.00
             334.53,261.75 317.50,287.60 299.00,303.58
             294.34,307.60 288.13,312.97 283.00,316.24
             281.49,317.20 277.61,319.61 276.15,317.36
             274.47,314.76 282.15,304.80 283.69,302.00
             291.73,287.36 297.32,271.35 300.60,255.00
             305.31,231.47 310.75,202.88 311.00,179.00
             311.00,179.00 311.00,169.00 311.00,169.00
             310.96,142.23 298.70,112.73 282.19,92.00
             282.19,92.00 271.96,80.09 271.96,80.09
             264.27,72.60 243.97,57.63 234.00,54.10
             228.97,52.32 215.36,49.76 212.02,55.23
             210.80,57.23 211.00,60.69 210.96,63.00
             210.96,63.00 210.96,77.00 210.96,77.00
             210.96,77.00 210.00,89.00 210.00,89.00
             210.00,89.00 210.00,177.00 210.00,177.00 Z
           M 81.00,168.00
           C 81.00,168.00 127.00,168.00 127.00,168.00
             137.21,168.00 147.17,167.12 157.00,170.36
             170.97,174.96 182.81,185.45 183.00,201.00
             183.00,201.00 183.00,320.00 183.00,320.00
             183.00,322.56 183.12,325.56 182.30,328.00
             181.03,331.76 178.08,334.88 174.99,337.24
             165.22,344.68 157.53,343.13 146.00,343.00
             132.28,342.84 106.30,333.61 94.00,327.22
             86.34,323.24 79.12,318.51 72.00,313.66
             39.82,291.75 14.60,254.74 5.13,217.00
             2.51,206.56 0.02,195.81 0.00,185.00
             0.00,185.00 0.00,155.00 0.00,155.00
             0.28,131.27 13.03,96.72 26.00,77.00
             35.69,62.29 46.46,48.86 60.00,37.44
             65.26,33.00 71.23,27.66 78.00,26.00
             76.14,31.84 73.19,34.76 70.31,40.00
             66.45,47.03 62.38,55.46 59.69,63.00
             55.09,75.92 51.86,89.50 49.46,103.00
             49.46,103.00 48.68,110.00 48.68,110.00
             48.68,110.00 44.29,134.00 44.29,134.00
             44.29,134.00 43.77,146.00 43.77,146.00
             41.60,172.50 40.24,185.74 48.74,212.00
             58.59,242.39 79.95,267.62 107.00,284.19
             112.76,287.72 125.58,294.37 132.00,295.62
             136.41,296.48 141.57,295.64 143.40,290.96
             144.11,289.14 144.00,285.99 144.00,284.00
             144.00,284.00 144.00,240.00 144.00,240.00
             143.99,236.35 144.12,221.34 143.15,219.02
             138.24,207.26 110.34,207.48 105.32,204.07
             102.72,202.30 97.95,194.90 96.00,192.00
             91.45,185.23 83.37,175.43 81.00,168.00 Z" />
</svg>
