<?xml version="1.0" encoding="UTF-8"?>
<svg width="450" height="450" version="1.1" viewBox="0 0 119.06 119.06" xmlns="http://www.w3.org/2000/svg" xmlns:cc="http://creativecommons.org/ns#" xmlns:dc="http://purl.org/dc/elements/1.1/" xmlns:rdf="http://www.w3.org/1999/02/22-rdf-syntax-ns#">
 <metadata>
  <rdf:RDF>
   <cc:Work rdf:about="">
    <dc:format>image/svg+xml</dc:format>
    <dc:type rdf:resource="http://purl.org/dc/dcmitype/StillImage"/>
    <dc:title/>
   </cc:Work>
  </rdf:RDF>
 </metadata>
 <circle cx="59.531" cy="59.531" r="59.531" stroke-width="21.738"/>
 <g transform="matrix(1.0833 0 0 1.0833 1.701 -13.282)" fill="#fff" shape-rendering="auto">
  <path d="m32.592 35.463c-6.0268 0-10.961 4.9358-10.961 10.963v41.576c0 6.0268 4.9338 10.961 10.961 10.961h41.578c6.0268 0 10.961-4.9343 10.961-10.961v-26.08h-5.2912v26.08c0 3.1868-2.4832 5.6699-5.6699 5.6699h-41.578c-3.1867 0-5.6679-2.4832-5.6679-5.6699v-41.576c0-3.1867 2.4811-5.6699 5.6679-5.6699h26.081v-5.2927z" color="#000000" color-rendering="auto" dominant-baseline="auto" image-rendering="auto" solid-color="#000000" stop-color="#000000" style="font-feature-settings:normal;font-variant-alternates:normal;font-variant-caps:normal;font-variant-east-asian:normal;font-variant-ligatures:normal;font-variant-numeric:normal;font-variant-position:normal;font-variation-settings:normal;inline-size:0;isolation:auto;mix-blend-mode:normal;shape-margin:0;shape-padding:0;text-decoration-color:#000000;text-decoration-line:none;text-decoration-style:solid;text-indent:0;text-orientation:mixed;text-transform:none;white-space:normal"/>
  <path d="m63.965 35.464v5.2912h12.133l-29.879 29.878 3.7424 3.7424 29.879-29.878v12.133h5.2912v-21.167z" color="#000000" color-rendering="auto" dominant-baseline="auto" image-rendering="auto" solid-color="#000000" stop-color="#000000" style="font-feature-settings:normal;font-variant-alternates:normal;font-variant-caps:normal;font-variant-east-asian:normal;font-variant-ligatures:normal;font-variant-numeric:normal;font-variant-position:normal;font-variation-settings:normal;inline-size:0;isolation:auto;mix-blend-mode:normal;shape-margin:0;shape-padding:0;text-decoration-color:#000000;text-decoration-line:none;text-decoration-style:solid;text-indent:0;text-orientation:mixed;text-transform:none;white-space:normal"/>
 </g>
</svg>
